<?xml version="1.0" encoding="UTF-8"?><svg id="b" xmlns="http://www.w3.org/2000/svg" viewBox="0 0 107.03 32.63"><defs><style>.d{fill:#a2a1a1;}</style></defs><g id="c"><g><path class="d" d="M17.87,7.12l-.03,.15c-.47,2.65-1.42,4.09-2.97,4.75-.37,.16-.78,.24-1.18,.24-2.12,0-3.14-2-3.5-2.66-.35-.63-.67-1.36-1.01-2.13-.89-2.02-2.26-4.45-3.69-4.45-.36,0-.87,.06-1.37,.33-1,.55-1,1.07-1.02,1.27-.22,1.73,1.3,3.37,3.4,5.32l.77,.7c1.22,1.1,2.53,2.34,3.42,3.85,.54,.91,.91,1.84,.96,2.76,.07,1.07-.25,2.14-.82,3.17-.37,.67-.8,1.21-1.3,1.8-1.43,1.62-1.95,3.02-1.38,4.29,.3,.67,.97,1.22,1.6,1.33,.26,.04,.52,.07,.78,.07,1.86,0,2.74-1.22,3.15-4.64,.17-1.42,.88-2.9,1.53-4.06,.89-1.58,2.16-2.29,3.8-2.42h.36c1.17-.03,2.29,.47,3.05,1.36,.6,.69,1,1.47,1.22,2.56,.18,.87,.14,1.92,.02,2.8l-.12,.84c-.21,1.47-.53,3.92,.18,4.8,.08,.1,.28,.35,1,.4h.28c1.02,0,1.45-.49,1.7-.76,.68-.75,1.1-2.25,.89-4.37-.04-.36-.13-.9-.24-1.47-.24-1.32-.55-2.96-.51-4.5,.06-2.17,.64-3.53,2.02-4.35,.46-.26,.98-.4,1.51-.4,1.04-.02,2.03,.43,2.69,1.23,.58,.67,.99,1.45,1.18,1.85,.3,.63,.45,1.27,.67,1.88,.42,1.17,.76,2.27,1.52,2.98,.5,.47,1.02,.65,1.47,.65,.41,0,.9-.23,1.26-.65,.66-.74,.95-1.67,.88-2.78-.1-1.48-.7-3.1-1.78-4.05-.52-.46-1.45-.78-2.2-1.2-1.08-.61-1.98-1.13-2.79-2.08-1.06-1.24-1.34-2.86-.84-4.57l.07-.24c.47-1.6,.56-2.3,.1-2.74-.2-.2-.69-.23-.75-.23-.27,0-.62,.14-.91,.46-.27,.31-.54,.78-.82,1.28-.39,.7-.84,1.48-1.46,2.12-.83,.87-1.76,1.38-2.89,1.41h-.08c-1.84,0-2.91-1.27-3.34-1.73-.34-.37-.78-.99-1.12-1.53-.34-.55-.75-1.16-1.14-1.61-1.16-1.32-1.84,.82-2.23,3m-2.88-.47l.02-.15c.3-1.68,.6-4.27,2.48-5.4,.64-.39,1.3-.53,1.97-.53,2.23,0,3.67,2.21,4.57,3.59,.51,.77,.92,1.72,1.6,1.72h.01c.6-.01,1.04-.51,1.84-1.9,.36-.63,.78-1.23,1.25-1.78,.89-1.03,1.79-1.38,2.98-1.38,.94,0,2.14,.35,2.87,1.03,.9,.84,1.23,1.93,1.19,3.27-.03,.97-.31,1.67-.55,2.49l-.07,.24c-.26,.88-.02,1.63,.22,1.92,.45,.53,1.3,1.01,2.18,1.5,.85,.48,1.73,.68,2.5,1.34,1.7,1.48,2.77,3.76,2.92,6.06,.12,1.95-.3,3.54-1.51,4.9-.97,1.1-2.19,1.68-3.5,1.68s-2.44-.47-3.54-1.5c-1.3-1.23-1.78-2.69-2.26-4.04l-.6-1.59c-.34-.72-.58-1.37-1.1-1.37s-.56,1.16-.57,1.79c-.03,1.22,.29,2.68,.5,3.86l.27,1.7c.52,5.11-1.9,8.5-5.53,8.5-.15,0-.31,0-.46-.01-1.73-.1-2.74-.88-3.26-1.53-1.58-1.94-1.12-5-.8-7.23l.1-.79c.15-1.14-.11-2.34-.6-2.89-.17-.21-.43-.32-.7-.31-.04,0-.08,0-.12,0-1.2,.1-1.66,1.34-2.4,4.14-.41,1.57-.75,3.26-1.58,4.6-1.08,1.74-2.73,2.55-4.75,2.55-.44,0-.87-.04-1.3-.11-.85-.14-1.7-.54-2.45-1.16-.69-.57-1.27-1.31-1.6-2.07-.6-1.35-.6-3.08-.03-4.53,.45-1.13,.97-1.73,1.62-2.62,.42-.57,.96-1.21,1.23-1.7,.53-.97,.65-1.82,.06-2.84-.64-1.1-1.84-2.17-2.89-3.11l-.8-.74C2.08,10.09-.36,7.64,.04,4.41,.17,3.36,.67,1.73,2.66,.64c.96-.53,1.9-.64,2.8-.64,1.6,0,3.02,.67,4.2,2.3,.87,1.19,1.54,2.65,2.09,3.96,.83,1.96,2.28,6.38,3.3,.43"/><path class="d" d="M87.98,18.97c-.1-.21,0-.35,.24-.35h.81c.13,0,.22,.08,.27,.17l2.23,4.84h.02l2.1-4.84c.05-.1,.15-.17,.27-.17h.71c.24,0,.35,.16,.24,.36l-3.88,8.18c-.05,.1-.16,.2-.27,.2h-.58c-.24,0-.36-.17-.25-.4l1.05-2.03-2.94-5.97h0Zm-10.97,4.99c.8,0,1.47-.38,1.74-.77v-1.17c-.2-.2-.77-.49-1.46-.49-.89,0-1.49,.38-1.49,1.2,0,.63,.54,1.23,1.22,1.23m.4-3.34c.68,0,1.35,.43,1.35,.43,.02-1.17-.46-1.7-1.36-1.7s-1.28,.24-1.57,.35c-.16,.06-.25-.02-.3-.16l-.13-.4c-.06-.2,.03-.29,.18-.35,.1-.05,.68-.41,1.86-.41,1.61,0,2.34,.82,2.34,2.67v3.51c0,.16-.14,.29-.3,.3h-.4c-.17,0-.22-.1-.27-.24v-.43c-.35,.33-.99,.71-1.97,.71-1.11,0-2.06-.92-2.06-2.18s1.01-2.11,2.64-2.11m-9.56,.5h-3.48c-.1,0-.1-.08-.1-.11,.16-.92,.94-1.6,1.95-1.6,.9,0,1.63,.74,1.74,1.6,0,.04-.01,.12-.09,.12m-1.64-2.67c-1.9,0-3.06,1.52-3.06,3.28s1.17,3.28,3.06,3.28c1.08,0,1.92-.42,2.29-.72,.23-.17,.17-.27,.06-.41l-.27-.36c-.12-.17-.22-.09-.44,.03-.36,.22-.9,.47-1.54,.47-1.06,0-1.95-.9-2.08-1.9,0-.1,.08-.13,.08-.13h4.4c.14,0,.27-.1,.28-.27,.02-.14,.03-.28,.03-.42,0-1.64-1.19-2.86-2.82-2.86m-11.29,5.25c-.08-.12-.14-.22-.37-.09,0,0-.35,.39-.97,.39s-.7-.74-.7-.79v-3.45c0-.07,.04-.19,.21-.21h1.6c.17,0,.3-.14,.3-.3v-.34c0-.17-.12-.3-.3-.3h-1.58c-.12,.01-.22-.07-.23-.18,0,0,0-.02,0-.03v-1.66c0-.16-.12-.3-.28-.3h-.48c-.16,0-.31,.14-.31,.3v1.63s0,.2-.2,.2h-.61c-.17,0-.3,.12-.3,.3v.34c0,.16,.12,.3,.3,.3h.62c.14,.02,.17,.14,.18,.2v3.56c0,.97,.56,1.72,1.8,1.72,.73,0,1.2-.4,1.43-.53,.17-.1,.22-.2,.1-.4l-.23-.4,.03,.04Zm4.5-5.25c-.92,0-1.48,.44-1.72,.68,0,0-.13,.13-.13-.07v-2.97c0-.16-.14-.3-.3-.3h-.49c-.15,0-.3,.14-.3,.3v8.47c0,.16,.14,.3,.3,.3h.49c.16,0,.3-.14,.3-.3v-3.43c0-1.17,.87-1.51,1.43-1.61,.11-.02,.23-.03,.35-.03,.87,0,1.64,.58,1.64,1.77v3.3c0,.16,.14,.3,.3,.3h.5c.16,0,.3-.14,.3-.3v-3.3c0-1.83-1.1-2.8-2.65-2.8m24.73,5.5c-.87,0-1.53-.55-1.53-.55v-3.26s.59-.78,1.61-.78c1.26,0,1.99,1.09,1.99,2.33s-.85,2.26-2.07,2.26m.2-5.59c-.63,0-1.24,.2-1.74,.58v-.05c0-.16-.14-.29-.3-.3h-.5c-.16,0-.3,.14-.3,.3v8.14c0,.16,.14,.29,.3,.3h.5c.16,0,.29-.14,.3-.3v-2.55s.65,.52,1.69,.52c1.74,0,3.04-1.46,3.04-3.31s-1.27-3.34-3-3.34m-11.18,0c-1.01,0-1.6,.5-1.8,.73v-.2c0-.16-.14-.29-.3-.3h-.5c-.16,0-.29,.14-.3,.3v5.65c0,.16,.14,.29,.3,.3h.5c.16,0,.3-.14,.3-.3v-4.23s.52-.89,1.72-.89c.21,0,.42,.04,.62,.13,.16,.06,.3,.06,.38-.14l.2-.54c.16-.44-.63-.52-1.11-.52m20.76-8.54h-3.48c-.1,0-.1-.08-.1-.11,.16-.92,.94-1.6,1.95-1.6,.9,0,1.63,.74,1.74,1.6,0,.04-.01,.12-.09,.12m-1.64-2.67c-1.9,0-3.06,1.52-3.06,3.28s1.17,3.28,3.06,3.28c1.08,0,1.92-.42,2.29-.72,.23-.17,.17-.27,.06-.41l-.26-.36c-.12-.17-.22-.09-.44,.03-.36,.22-.9,.47-1.54,.47-1.06,0-1.95-.9-2.08-1.9,0-.1,.08-.13,.08-.13h4.4c.14,0,.27-.1,.28-.27,.02-.14,.03-.28,.03-.42,0-1.64-1.19-2.86-2.82-2.86m14.43,5.25c-.08-.12-.14-.22-.37-.09,0,0-.35,.39-.97,.39s-.7-.74-.7-.8v-3.45c0-.07,.04-.19,.21-.21h1.6c.17,0,.3-.14,.3-.3v-.34c0-.17-.13-.3-.3-.3h-1.57c-.12,.01-.22-.07-.23-.18,0,0,0-.02,0-.03v-1.63c0-.16-.12-.3-.28-.3h-.48c-.16,0-.31,.14-.31,.3v1.63s0,.2-.2,.2h-.61c-.17,0-.3,.12-.3,.3v.34c0,.16,.12,.3,.3,.3h.62c.14,.02,.17,.14,.18,.2v3.56c0,.97,.56,1.72,1.8,1.72,.73,0,1.2-.4,1.43-.53,.17-.1,.22-.2,.1-.4l-.23-.4,.03,.03Zm-7.54-5.25c-.92,0-1.48,.44-1.72,.68,0,0-.13,.13-.13-.07v-.16c0-.16-.14-.3-.3-.3h-.48c-.16,0-.3,.14-.3,.3v5.66c0,.16,.14,.3,.3,.3h.48c.16,0,.3-.14,.3-.3v-3.43c0-1.17,.87-1.5,1.43-1.61,.11-.02,.23-.03,.35-.03,.87,0,1.64,.58,1.64,1.77v3.3c0,.16,.14,.3,.3,.3h.5c.16,0,.3-.14,.3-.3v-3.3c0-1.83-1.1-2.8-2.66-2.8m-49.4,5.5c.8,0,1.47-.38,1.74-.77v-1.17c-.2-.19-.77-.49-1.46-.49-.89,0-1.49,.38-1.49,1.2,0,.63,.54,1.23,1.22,1.23m.4-3.34c.68,0,1.35,.43,1.35,.43,.02-1.17-.46-1.7-1.36-1.7s-1.28,.24-1.56,.35c-.16,.06-.25-.02-.3-.16l-.13-.4c-.06-.2,.03-.29,.17-.35,.09-.05,.68-.41,1.87-.41,1.61,0,2.34,.82,2.34,2.67v3.47c0,.16-.14,.29-.3,.3h-.41c-.17,0-.22-.1-.27-.24v-.43c-.35,.33-.99,.71-1.98,.71-1.11,0-2.06-.92-2.06-2.18s1.01-2.11,2.64-2.11m12.9,3.34c.8,0,1.47-.38,1.74-.77v-1.17c-.2-.19-.77-.49-1.46-.49-.89,0-1.49,.38-1.49,1.2,0,.63,.54,1.23,1.22,1.23m.41-3.34c.68,0,1.34,.43,1.34,.43,.02-1.17-.46-1.7-1.36-1.7s-1.28,.24-1.57,.35c-.16,.06-.25-.02-.3-.16l-.13-.4c-.06-.2,.03-.29,.17-.35,.1-.05,.68-.41,1.87-.41,1.61,0,2.34,.82,2.34,2.67v3.5c0,.16-.14,.29-.3,.3h-.42c-.17,0-.22-.1-.27-.24v-.43c-.35,.33-.99,.71-1.97,.71-1.11,0-2.06-.92-2.06-2.18s1.01-2.11,2.64-2.11m12.97,3.09c-.08-.12-.14-.22-.37-.09,0,0-.35,.39-.97,.39s-.7-.74-.7-.8v-3.44c0-.07,.04-.19,.21-.21h1.6c.17,0,.3-.14,.3-.3v-.34c0-.17-.12-.3-.3-.3h-1.59c-.12,.01-.22-.07-.23-.18,0,0,0-.02,0-.03v-1.63c0-.16-.12-.3-.28-.3h-.48c-.16,0-.31,.14-.31,.3v1.63s0,.2-.2,.2h-.61c-.17,0-.3,.12-.3,.3v.34c0,.16,.12,.3,.3,.3h.62c.14,.02,.17,.14,.18,.2v3.56c0,.97,.56,1.72,1.8,1.72,.73,0,1.2-.4,1.43-.53,.17-.1,.22-.2,.1-.4l-.23-.4,.04,.02Zm-19.69,.25c-.87,0-1.53-.55-1.53-.55v-3.26s.59-.78,1.61-.78c1.27,0,1.99,1.09,1.99,2.33s-.85,2.26-2.07,2.26m.2-5.59c-.63,0-1.24,.2-1.74,.58v-.05c0-.16-.14-.29-.3-.3h-.5c-.16,0-.3,.14-.3,.3V15.77c0,.16,.14,.29,.3,.3h.5c.16,0,.29-.14,.3-.3v-2.55s.65,.52,1.69,.52c1.74,0,3.04-1.46,3.04-3.31s-1.26-3.34-3-3.34m13.37,0c-1.01,0-1.6,.5-1.8,.73v-.2c0-.16-.14-.29-.3-.3h-.5c-.16,0-.29,.14-.3,.3v5.66c0,.16,.14,.29,.3,.3h.5c.16,0,.29-.14,.3-.3v-4.23s.52-.89,1.72-.89c.21,0,.42,.04,.62,.13,.16,.06,.3,.06,.38-.14l.2-.54c.16-.44-.63-.52-1.11-.52m15.13,.08c-.96,0-1.75,.5-2.21,1.27-.44-.83-1.28-1.27-2.3-1.27-.92,0-1.48,.44-1.72,.68,0,0-.13,.13-.13-.07v-.16c0-.16-.14-.3-.3-.3h-.48c-.16,0-.3,.14-.3,.3v5.66c0,.16,.14,.3,.3,.3h.48c.16,0,.3-.14,.3-.3v-3.43c0-1.17,.87-1.5,1.43-1.61,.11-.02,.23-.03,.34-.03,.87,0,1.64,.58,1.64,1.77v3.3c0,.16,.14,.3,.3,.3h.5c.16,0,.3-.14,.3-.3v-3.43c0-1.17,.87-1.5,1.43-1.61,.11-.02,.23-.03,.35-.03,.87,0,1.64,.58,1.64,1.77v3.3c0,.16,.14,.3,.3,.3h.5c.16,0,.3-.14,.3-.3v-3.3c0-1.83-1.1-2.8-2.65-2.8"/></g></g></svg>