<?xml version="1.0" encoding="UTF-8"?><svg id="b" xmlns="http://www.w3.org/2000/svg" viewBox="0 0 95.93 47.4"><defs><style>.d{fill:#a2a1a1;}</style></defs><g id="c"><g><path class="d" d="M0,10.2v10.13H5.25V.08H0V10.2Z"/><path class="d" d="M9,10.2v10.13h4.5v-5.48l.08-5.4,5.03,5.4c3.9,4.2,5.55,5.48,7.13,5.48h2.03V.08h-5.18l-.23,5.63-.23,5.7-4.73-5.7C13.88,1.58,12.15,.08,10.8,.08h-1.8V10.2Z"/><path class="d" d="M36.75,2.33c0,2.18,.15,2.25,3.38,2.25h3.38v15.75h5.25V4.65l3.23-.23c2.78-.23,3.15-.45,3.15-2.1V.45l-9.15-.23-9.23-.23V2.33Z"/><path class="d" d="M57.75,10.2v10.13h2.25c2.18,0,2.25-.08,2.25-3.75v-3.83l4.35,.23,4.28,.23,.23,3.53c.23,3.45,.38,3.6,2.48,3.6h2.18V.08h-2.18c-2.18,0-2.25,.15-2.48,3.9l-.23,3.98-4.28,.23-4.35,.23V4.2C62.25,.15,62.25,.08,60,.08h-2.25V10.2Z"/><path class="d" d="M79.5,10.2v10.13h15.83l-.23-2.1c-.23-1.95-.38-2.03-5.25-2.25-4.5-.23-5.1-.38-5.1-1.65,0-1.35,.53-1.5,4.5-1.5h4.5v-4.5h-4.5c-4.28,0-4.5-.08-4.5-1.88s.15-1.88,5.25-1.88h5.25V.08h-15.75V10.2Z"/><path class="d" d="M0,36.38v10.2H2.63c2.4,0,2.63-.23,2.63-2.1,0-1.2,.68-2.78,1.5-3.53,1.5-1.35,1.58-1.35,2.7,.3,3.3,4.65,4.35,5.48,7.2,5.18l2.78-.23-3.68-4.88c-2.03-2.7-3.75-5.25-3.75-5.63,0-.45,1.5-2.48,3.38-4.65,1.88-2.1,3.38-4.05,3.38-4.28s-1.13-.45-2.55-.45c-2.25,0-3.15,.68-6.6,4.5l-3.98,4.58-.38-4.35c-.38-4.28-.45-4.35-2.78-4.58l-2.48-.23v10.13Z"/><path class="d" d="M20.25,36.45v10.13h5.18l.23-5.18,.23-5.25,4.43,5.25c3.6,4.13,4.88,5.18,6.6,5.18h2.1V26.25l-2.4,.23-2.48,.23-.38,5.4-.38,5.33-4.73-5.55c-3.53-4.05-5.25-5.55-6.6-5.55h-1.8v10.13Z"/><path class="d" d="M45.68,28.05c-8.93,5.93-4.73,19.28,6.08,19.28,2.85,0,5.78-1.43,8.18-4.05,2.55-2.7,3-8.85,.98-12.15-3-4.73-10.5-6.23-15.23-3.08Zm9.38,4.35c1.5,1.2,1.95,2.18,1.95,4.43s-.45,3.23-1.95,4.43c-2.25,1.8-3.23,1.95-5.78,.75-3.68-1.65-4.58-6.45-1.65-9.3,2.25-2.25,4.8-2.4,7.43-.3Z"/><path class="d" d="M62.25,27.23c0,.53,1.35,5.25,3,10.58l3.08,9.6,2.4-.23c2.25-.23,2.55-.6,4.13-5.1,.9-2.7,1.88-5.4,2.1-6,.3-.68,1.28,1.35,2.48,4.88,1.95,5.63,2.18,6,4.35,6.23l2.33,.23,3.38-10.2c3.6-10.73,3.6-11.33-.3-10.73-1.35,.15-1.95,1.2-3.23,5.63-.9,2.93-1.8,5.55-2.1,5.85-.23,.23-1.35-2.25-2.48-5.55-1.8-5.55-2.18-6.08-3.98-6.08s-2.18,.53-4.13,6.08c-1.2,3.3-2.33,5.85-2.55,5.7-.15-.23-1.05-2.85-1.95-5.85-1.65-5.25-1.8-5.55-4.13-5.78-1.58-.15-2.4,.08-2.4,.75Z"/><path class="d" d="M90.9,44.48c.23,2.18,.45,2.48,2.48,2.48s2.25-.3,2.48-2.48c.23-2.33,.15-2.4-2.48-2.4s-2.7,.08-2.48,2.4Z"/></g></g></svg>